<mxfile host="app.diagrams.net" modified="2023-04-28T14:01:53.002Z" agent="Mozilla/5.0 (Windows NT 10.0; Win64; x64) AppleWebKit/537.36 (KHTML, like Gecko) Chrome/112.0.0.0 Safari/537.36" version="21.2.3" etag="eH3maWSPe9TXc_rO9BV0" type="device">
  <diagram id="C5RBs43oDa-KdzZeNtuy" name="Page-1">
    <mxGraphModel dx="1167" dy="601" grid="1" gridSize="10" guides="1" tooltips="1" connect="1" arrows="1" fold="1" page="1" pageScale="1" pageWidth="827" pageHeight="1169" math="0" shadow="0">
      <root>
        <mxCell id="WIyWlLk6GJQsqaUBKTNV-0" />
        <mxCell id="WIyWlLk6GJQsqaUBKTNV-1" parent="WIyWlLk6GJQsqaUBKTNV-0" />
        <mxCell id="Iu0bIFzFYmyhiTm21eD3-24" value="" style="edgeStyle=orthogonalEdgeStyle;rounded=0;orthogonalLoop=1;jettySize=auto;html=1;" edge="1" parent="WIyWlLk6GJQsqaUBKTNV-1" target="Iu0bIFzFYmyhiTm21eD3-23">
          <mxGeometry relative="1" as="geometry">
            <mxPoint x="174.5" y="445" as="sourcePoint" />
          </mxGeometry>
        </mxCell>
        <mxCell id="Iu0bIFzFYmyhiTm21eD3-47" value="" style="edgeStyle=orthogonalEdgeStyle;rounded=0;orthogonalLoop=1;jettySize=auto;html=1;" edge="1" parent="WIyWlLk6GJQsqaUBKTNV-1" source="Iu0bIFzFYmyhiTm21eD3-8" target="Iu0bIFzFYmyhiTm21eD3-22">
          <mxGeometry relative="1" as="geometry" />
        </mxCell>
        <mxCell id="Iu0bIFzFYmyhiTm21eD3-8" value="press button at &lt;br&gt;GP20 pressed?" style="rhombus;whiteSpace=wrap;html=1;shadow=0;fontFamily=Helvetica;fontSize=12;align=center;strokeWidth=1;spacing=6;spacingTop=-4;" vertex="1" parent="WIyWlLk6GJQsqaUBKTNV-1">
          <mxGeometry x="92" y="390" width="142.5" height="110" as="geometry" />
        </mxCell>
        <mxCell id="Iu0bIFzFYmyhiTm21eD3-12" value="" style="edgeStyle=orthogonalEdgeStyle;rounded=0;orthogonalLoop=1;jettySize=auto;html=1;" edge="1" parent="WIyWlLk6GJQsqaUBKTNV-1" source="Iu0bIFzFYmyhiTm21eD3-11">
          <mxGeometry relative="1" as="geometry">
            <mxPoint x="163.5" y="140" as="targetPoint" />
            <Array as="points">
              <mxPoint x="163.5" y="120" />
              <mxPoint x="163.5" y="120" />
            </Array>
          </mxGeometry>
        </mxCell>
        <mxCell id="Iu0bIFzFYmyhiTm21eD3-11" value="Start" style="ellipse;whiteSpace=wrap;html=1;" vertex="1" parent="WIyWlLk6GJQsqaUBKTNV-1">
          <mxGeometry x="103.5" y="30" width="120" height="80" as="geometry" />
        </mxCell>
        <mxCell id="Iu0bIFzFYmyhiTm21eD3-19" value="" style="edgeStyle=orthogonalEdgeStyle;rounded=0;orthogonalLoop=1;jettySize=auto;html=1;" edge="1" parent="WIyWlLk6GJQsqaUBKTNV-1" source="Iu0bIFzFYmyhiTm21eD3-15" target="Iu0bIFzFYmyhiTm21eD3-18">
          <mxGeometry relative="1" as="geometry" />
        </mxCell>
        <mxCell id="Iu0bIFzFYmyhiTm21eD3-15" value="Initialize GP20, GP21 as input and GP10, GP11, GP12, GP13 as output&lt;span style=&quot;white-space: pre;&quot;&gt;	&lt;/span&gt;" style="rounded=0;whiteSpace=wrap;html=1;" vertex="1" parent="WIyWlLk6GJQsqaUBKTNV-1">
          <mxGeometry x="88.5" y="140" width="150" height="100" as="geometry" />
        </mxCell>
        <mxCell id="Iu0bIFzFYmyhiTm21eD3-46" value="" style="edgeStyle=orthogonalEdgeStyle;rounded=0;orthogonalLoop=1;jettySize=auto;html=1;" edge="1" parent="WIyWlLk6GJQsqaUBKTNV-1" source="Iu0bIFzFYmyhiTm21eD3-18" target="Iu0bIFzFYmyhiTm21eD3-8">
          <mxGeometry relative="1" as="geometry" />
        </mxCell>
        <mxCell id="Iu0bIFzFYmyhiTm21eD3-18" value="Check push button at GP20 and GP21" style="rounded=0;whiteSpace=wrap;html=1;" vertex="1" parent="WIyWlLk6GJQsqaUBKTNV-1">
          <mxGeometry x="91" y="270" width="145" height="90" as="geometry" />
        </mxCell>
        <mxCell id="Iu0bIFzFYmyhiTm21eD3-42" value="" style="edgeStyle=orthogonalEdgeStyle;rounded=0;orthogonalLoop=1;jettySize=auto;html=1;" edge="1" parent="WIyWlLk6GJQsqaUBKTNV-1" source="Iu0bIFzFYmyhiTm21eD3-22" target="Iu0bIFzFYmyhiTm21eD3-37">
          <mxGeometry relative="1" as="geometry" />
        </mxCell>
        <mxCell id="Iu0bIFzFYmyhiTm21eD3-48" value="" style="edgeStyle=orthogonalEdgeStyle;rounded=0;orthogonalLoop=1;jettySize=auto;html=1;" edge="1" parent="WIyWlLk6GJQsqaUBKTNV-1" source="Iu0bIFzFYmyhiTm21eD3-22" target="Iu0bIFzFYmyhiTm21eD3-43">
          <mxGeometry relative="1" as="geometry" />
        </mxCell>
        <mxCell id="Iu0bIFzFYmyhiTm21eD3-22" value="press button at &lt;br&gt;GP21 pressed?" style="rhombus;whiteSpace=wrap;html=1;shadow=0;fontFamily=Helvetica;fontSize=12;align=center;strokeWidth=1;spacing=6;spacingTop=-4;" vertex="1" parent="WIyWlLk6GJQsqaUBKTNV-1">
          <mxGeometry x="92" y="545" width="142.5" height="110" as="geometry" />
        </mxCell>
        <mxCell id="Iu0bIFzFYmyhiTm21eD3-33" value="" style="edgeStyle=orthogonalEdgeStyle;rounded=0;orthogonalLoop=1;jettySize=auto;html=1;" edge="1" parent="WIyWlLk6GJQsqaUBKTNV-1" source="Iu0bIFzFYmyhiTm21eD3-23" target="Iu0bIFzFYmyhiTm21eD3-25">
          <mxGeometry relative="1" as="geometry" />
        </mxCell>
        <mxCell id="Iu0bIFzFYmyhiTm21eD3-23" value="Blink 4 led in 0.5 sec" style="whiteSpace=wrap;html=1;shadow=0;strokeWidth=1;spacing=6;spacingTop=-4;" vertex="1" parent="WIyWlLk6GJQsqaUBKTNV-1">
          <mxGeometry x="274.5" y="415" width="120" height="60" as="geometry" />
        </mxCell>
        <mxCell id="Iu0bIFzFYmyhiTm21eD3-29" style="edgeStyle=orthogonalEdgeStyle;rounded=0;orthogonalLoop=1;jettySize=auto;html=1;exitX=0.5;exitY=1;exitDx=0;exitDy=0;entryX=0.5;entryY=1;entryDx=0;entryDy=0;" edge="1" parent="WIyWlLk6GJQsqaUBKTNV-1" source="Iu0bIFzFYmyhiTm21eD3-25" target="Iu0bIFzFYmyhiTm21eD3-23">
          <mxGeometry relative="1" as="geometry" />
        </mxCell>
        <mxCell id="Iu0bIFzFYmyhiTm21eD3-35" value="" style="edgeStyle=orthogonalEdgeStyle;rounded=0;orthogonalLoop=1;jettySize=auto;html=1;" edge="1" parent="WIyWlLk6GJQsqaUBKTNV-1" source="Iu0bIFzFYmyhiTm21eD3-25" target="Iu0bIFzFYmyhiTm21eD3-34">
          <mxGeometry relative="1" as="geometry" />
        </mxCell>
        <mxCell id="Iu0bIFzFYmyhiTm21eD3-25" value="&lt;p style=&quot;line-height: 100%;&quot;&gt;Repeated 6 times?&lt;/p&gt;" style="rhombus;whiteSpace=wrap;html=1;shadow=0;strokeWidth=1;spacing=6;spacingTop=-4;" vertex="1" parent="WIyWlLk6GJQsqaUBKTNV-1">
          <mxGeometry x="423.25" y="407.5" width="168.75" height="75" as="geometry" />
        </mxCell>
        <mxCell id="Iu0bIFzFYmyhiTm21eD3-31" value="No" style="text;html=1;align=center;verticalAlign=middle;resizable=0;points=[];autosize=1;strokeColor=none;fillColor=none;" vertex="1" parent="WIyWlLk6GJQsqaUBKTNV-1">
          <mxGeometry x="394.5" y="475" width="40" height="30" as="geometry" />
        </mxCell>
        <mxCell id="Iu0bIFzFYmyhiTm21eD3-45" style="edgeStyle=orthogonalEdgeStyle;rounded=0;orthogonalLoop=1;jettySize=auto;html=1;entryX=1;entryY=0.5;entryDx=0;entryDy=0;" edge="1" parent="WIyWlLk6GJQsqaUBKTNV-1" source="Iu0bIFzFYmyhiTm21eD3-34" target="Iu0bIFzFYmyhiTm21eD3-43">
          <mxGeometry relative="1" as="geometry">
            <Array as="points">
              <mxPoint x="690" y="750" />
            </Array>
          </mxGeometry>
        </mxCell>
        <mxCell id="Iu0bIFzFYmyhiTm21eD3-34" value="On buzzer" style="whiteSpace=wrap;html=1;shadow=0;strokeWidth=1;spacing=6;spacingTop=-4;" vertex="1" parent="WIyWlLk6GJQsqaUBKTNV-1">
          <mxGeometry x="629.995" y="415" width="120" height="60" as="geometry" />
        </mxCell>
        <mxCell id="Iu0bIFzFYmyhiTm21eD3-36" value="" style="edgeStyle=orthogonalEdgeStyle;rounded=0;orthogonalLoop=1;jettySize=auto;html=1;" edge="1" parent="WIyWlLk6GJQsqaUBKTNV-1" source="Iu0bIFzFYmyhiTm21eD3-37" target="Iu0bIFzFYmyhiTm21eD3-40">
          <mxGeometry relative="1" as="geometry" />
        </mxCell>
        <mxCell id="Iu0bIFzFYmyhiTm21eD3-37" value="Shifting 4 led form left-to-right and right-to-left" style="whiteSpace=wrap;html=1;shadow=0;strokeWidth=1;spacing=6;spacingTop=-4;" vertex="1" parent="WIyWlLk6GJQsqaUBKTNV-1">
          <mxGeometry x="274.5" y="570" width="120" height="60" as="geometry" />
        </mxCell>
        <mxCell id="Iu0bIFzFYmyhiTm21eD3-38" style="edgeStyle=orthogonalEdgeStyle;rounded=0;orthogonalLoop=1;jettySize=auto;html=1;exitX=0.5;exitY=1;exitDx=0;exitDy=0;entryX=0.5;entryY=1;entryDx=0;entryDy=0;" edge="1" parent="WIyWlLk6GJQsqaUBKTNV-1" source="Iu0bIFzFYmyhiTm21eD3-40" target="Iu0bIFzFYmyhiTm21eD3-37">
          <mxGeometry relative="1" as="geometry" />
        </mxCell>
        <mxCell id="Iu0bIFzFYmyhiTm21eD3-39" value="" style="edgeStyle=orthogonalEdgeStyle;rounded=0;orthogonalLoop=1;jettySize=auto;html=1;" edge="1" parent="WIyWlLk6GJQsqaUBKTNV-1" source="Iu0bIFzFYmyhiTm21eD3-40">
          <mxGeometry relative="1" as="geometry">
            <mxPoint x="690" y="600" as="targetPoint" />
          </mxGeometry>
        </mxCell>
        <mxCell id="Iu0bIFzFYmyhiTm21eD3-40" value="&lt;p style=&quot;line-height: 100%;&quot;&gt;Repeated 6 times?&lt;/p&gt;" style="rhombus;whiteSpace=wrap;html=1;shadow=0;strokeWidth=1;spacing=6;spacingTop=-4;" vertex="1" parent="WIyWlLk6GJQsqaUBKTNV-1">
          <mxGeometry x="423.25" y="562.5" width="168.75" height="75" as="geometry" />
        </mxCell>
        <mxCell id="Iu0bIFzFYmyhiTm21eD3-41" value="No" style="text;html=1;align=center;verticalAlign=middle;resizable=0;points=[];autosize=1;strokeColor=none;fillColor=none;" vertex="1" parent="WIyWlLk6GJQsqaUBKTNV-1">
          <mxGeometry x="394.5" y="630" width="40" height="30" as="geometry" />
        </mxCell>
        <mxCell id="Iu0bIFzFYmyhiTm21eD3-43" value="End" style="ellipse;whiteSpace=wrap;html=1;" vertex="1" parent="WIyWlLk6GJQsqaUBKTNV-1">
          <mxGeometry x="103.5" y="710" width="120" height="80" as="geometry" />
        </mxCell>
        <mxCell id="Iu0bIFzFYmyhiTm21eD3-49" value="No" style="text;html=1;align=center;verticalAlign=middle;resizable=0;points=[];autosize=1;strokeColor=none;fillColor=none;" vertex="1" parent="WIyWlLk6GJQsqaUBKTNV-1">
          <mxGeometry x="170" y="500" width="40" height="30" as="geometry" />
        </mxCell>
        <mxCell id="Iu0bIFzFYmyhiTm21eD3-50" value="No" style="text;html=1;align=center;verticalAlign=middle;resizable=0;points=[];autosize=1;strokeColor=none;fillColor=none;" vertex="1" parent="WIyWlLk6GJQsqaUBKTNV-1">
          <mxGeometry x="170" y="670" width="40" height="30" as="geometry" />
        </mxCell>
        <mxCell id="Iu0bIFzFYmyhiTm21eD3-51" value="Yes" style="text;html=1;align=center;verticalAlign=middle;resizable=0;points=[];autosize=1;strokeColor=none;fillColor=none;" vertex="1" parent="WIyWlLk6GJQsqaUBKTNV-1">
          <mxGeometry x="234.5" y="415" width="40" height="30" as="geometry" />
        </mxCell>
        <mxCell id="Iu0bIFzFYmyhiTm21eD3-52" value="Yes" style="text;html=1;align=center;verticalAlign=middle;resizable=0;points=[];autosize=1;strokeColor=none;fillColor=none;" vertex="1" parent="WIyWlLk6GJQsqaUBKTNV-1">
          <mxGeometry x="234.5" y="570" width="40" height="30" as="geometry" />
        </mxCell>
        <mxCell id="Iu0bIFzFYmyhiTm21eD3-53" value="Yes" style="text;html=1;align=center;verticalAlign=middle;resizable=0;points=[];autosize=1;strokeColor=none;fillColor=none;" vertex="1" parent="WIyWlLk6GJQsqaUBKTNV-1">
          <mxGeometry x="590" y="570" width="40" height="30" as="geometry" />
        </mxCell>
        <mxCell id="Iu0bIFzFYmyhiTm21eD3-54" value="Yes" style="text;html=1;align=center;verticalAlign=middle;resizable=0;points=[];autosize=1;strokeColor=none;fillColor=none;" vertex="1" parent="WIyWlLk6GJQsqaUBKTNV-1">
          <mxGeometry x="589.99" y="415" width="40" height="30" as="geometry" />
        </mxCell>
      </root>
    </mxGraphModel>
  </diagram>
</mxfile>
